<svg xmlns="http://www.w3.org/2000/svg" xmlns:xlink="http://www.w3.org/1999/xlink" width="751.131" height="489.52" viewBox="0 0 751.131 489.52">
  <defs>
    <linearGradient id="linear-gradient" x1="0.5" x2="0.5" y2="1" gradientUnits="objectBoundingBox">
      <stop offset="0" stop-color="#9333ea"/>
      <stop offset="1" stop-color="#3b82f6"/>
    </linearGradient>
    <linearGradient id="linear-gradient-2" y1="0.753" x2="0.81" gradientUnits="objectBoundingBox">
      <stop offset="0" stop-color="#0047e2"/>
      <stop offset="1" stop-color="#842df7"/>
    </linearGradient>
  </defs>
  <g id="undraw_add_color_re_buro" transform="translate(0 0)">
    <path id="Path_1" data-name="Path 1" d="M399.19,633.244l-22.059-7.707a75.394,75.394,0,0,1,1.586-36.241c8.368,20.147,34.469,25.78,48.961,42.087a45.349,45.349,0,0,1,10.508,37.877l4.224,16.025a75.991,75.991,0,0,1-54.372-33.048,73.4,73.4,0,0,1-8.126-16.525C389.435,635.037,399.19,633.244,399.19,633.244Z" transform="translate(-224.434 -205.24)" fill="#f2f2f2"/>
    <path id="Path_2" data-name="Path 2" d="M655.33,490.008H539.82a6.163,6.163,0,0,0-6.154,6.17V678.649H661.5V496.177A6.166,6.166,0,0,0,655.33,490.008ZM597.964,593.686a13.7,13.7,0,0,1-13.64-13.64V559a13.64,13.64,0,0,1,27.28,0v21.047a13.7,13.7,0,0,1-13.64,13.639Z" transform="translate(-224.434 -205.24)" fill="#e6e6e6"/>
    <path id="Path_3" data-name="Path 3" d="M533.27,672.813v17.6a3.449,3.449,0,0,0,3.442,3.442H658.455a3.459,3.459,0,0,0,3.442-3.442v-17.6Z" transform="translate(-224.434 -205.24)" fill="#ccc"/>
    <path id="Path_4" data-name="Path 4" d="M846.6,205.24H352.844a16.029,16.029,0,0,0-16,16V554.434a16.018,16.018,0,0,0,16,16H846.6a16.018,16.018,0,0,0,16-16V221.243A16.029,16.029,0,0,0,846.6,205.24Z" transform="translate(-224.434 -205.24)" fill="#e6e6e6"/>
    <path id="Path_5" data-name="Path 5" d="M842.481,216.794H356.971a8.58,8.58,0,0,0-8.56,8.58V550.3a8.57,8.57,0,0,0,8.56,8.56h485.51a8.57,8.57,0,0,0,8.56-8.56V225.374a8.58,8.58,0,0,0-8.56-8.58Z" transform="translate(-224.434 -205.24)" fill="#fff"/>
    <path id="Path_6" data-name="Path 6" d="M853.961,224.145v282.82a179.022,179.022,0,0,1-183.37-291.4H845.4A8.58,8.58,0,0,1,853.961,224.145Z" transform="translate(-224.434 -205.24)" fill="url(#linear-gradient)"/>
    <path id="Path_7" data-name="Path 7" d="M818.077,261.567H363.784a1.807,1.807,0,1,1,0-3.614H818.077a1.807,1.807,0,1,1,0,3.614Z" transform="translate(-224.434 -205.24)" fill="#cacaca"/>
    <ellipse id="Ellipse_1" data-name="Ellipse 1" cx="10.587" cy="10.823" rx="10.587" ry="10.823" transform="translate(159.686 21.843)" fill="#3f3d56"/>
    <ellipse id="Ellipse_2" data-name="Ellipse 2" cx="10.587" cy="10.823" rx="10.587" ry="10.823" transform="translate(196.262 21.843)" fill="#3f3d56"/>
    <ellipse id="Ellipse_3" data-name="Ellipse 3" cx="10.587" cy="10.823" rx="10.587" ry="10.823" transform="translate(232.837 21.843)" fill="#3f3d56"/>
    <path id="Path_11" data-name="Path 11" d="M478.394,459.523a6.76,6.76,0,0,0-1.348-10.277l5.54-23.375-11.725,4.284-3.463,21.54a6.8,6.8,0,0,0,11,7.828Z" transform="translate(-224.434 -205.24)" fill="#9e616a"/>
    <path id="Path_12" data-name="Path 12" d="M506.59,361.57l-4.706,12.1s2.017,12.1-1.344,14.789-2.017,2.689-2.017,4.706a10.341,10.341,0,0,1-4.033,7.395c-2.689,2.017-14.789,43.023-14.789,43.023H467.6a37.912,37.912,0,0,0,0-9.411c-.672-4.706,2.017-16.806,3.361-18.823s0-4.706,0-8.739,2.689-6.05,2.689-12.773,8.067-59.157,7.395-65.207,6.722-11.428,6.722-11.428h6.723Z" transform="translate(-224.434 -205.24)" fill="#e6e6e6"/>
    <path id="Path_13" data-name="Path 13" d="M325.812,471.541h9.315l4.433-35.93H325.812Z" fill="#9e616a"/>
    <path id="Path_14" data-name="Path 14" d="M547.206,670.4l14.882-.888v6.376l14.149,9.771a3.983,3.983,0,0,1-2.263,7.26H556.256l-3.054-6.307-1.192,6.307h-6.68Z" transform="translate(-224.434 -205.24)" fill="#2f2e41"/>
    <path id="Path_15" data-name="Path 15" d="M209.063,463.627l8.655,3.445,17.407-31.742-12.773-5.085Z" fill="#9e616a"/>
    <path id="Path_16" data-name="Path 16" d="M433.033,661.815l14.155,4.679-2.358,5.924,9.531,14.312a3.983,3.983,0,0,1-4.788,5.908l-16.461-6.553-.5-6.989-3.44,5.419-6.207-2.471Z" transform="translate(-224.434 -205.24)" fill="#2f2e41"/>
    <path id="Path_17" data-name="Path 17" d="M531.47,569.868,515.937,497.38l-24.256,80.54-38.407,76.373-.2.405-12.165-6.55c-1.717-31.011,2.361-60.07,17.276-85.481l7.063-69.746c.216-2.383,5.485-58.332,22.166-68.253l4.885-11.14,48.59-12,.177.2a37.147,37.147,0,0,1,8.9,18.657l14.519,87.957.008.049L560.6,569.75l5.325,90.526H546.653Q528.773,626.632,531.47,569.868Z" transform="translate(-224.434 -205.24)" fill="#2f2e41"/>
    <path id="Path_18" data-name="Path 18" d="M577.414,328.459l29.456-10.305a3.652,3.652,0,0,1,2.412,6.894l-29.456,10.305a3.652,3.652,0,1,1-2.412-6.894Z" transform="translate(-224.434 -205.24)" fill="#2f2e41"/>
    <path id="Path_19" data-name="Path 19" d="M609.065,324.11c.576,1.995,3.063,2.964,5.07,2.432a8.239,8.239,0,0,0,4.617-3.95c1.079-1.774,1.819-3.74,2.929-5.495a15.412,15.412,0,0,1,9.3-6.67,16.142,16.142,0,0,0-9.923,1.88,11.976,11.976,0,0,1-3.477,1.639,30.057,30.057,0,0,1-3.967-.052,6.123,6.123,0,0,0-4.158,10.3" transform="translate(-224.434 -205.24)" fill="url(#linear-gradient-2)"/>
    <path id="Path_20" data-name="Path 20" d="M605.213,327.283a6.76,6.76,0,0,1-8.719,5.606l-14.274,19.322-4.3-11.72,14.213-16.552a6.8,6.8,0,0,1,13.078,3.344Z" transform="translate(-224.434 -205.24)" fill="#9e616a"/>
    <path id="Path_21" data-name="Path 21" d="M477.973,437.128c-1.309,0-2.052-.257-2.34-.807-.422-.808.311-1.863,1.159-3.085.592-.852,2.32-2.545,1.47-2.649-12.89-1.574-6.7-81.044-1.116-91.548,1.135-2.134-.066-5.409,1.212-9.031,3.491-9.892,8.257-12.932,17.751-18.988q1.156-.738,2.407-1.54c1.079-.694,1.019-2.993.956-5.428-.07-2.706-.144-5.505,1.182-7.255l.086-.114.139-.032c3.207-.741,13.993-2.118,20.381.01l.088.03.066.065c1.517,1.517,1.656,4.457,1.789,7.3.109,2.333.213,4.537,1.072,5.494,6.563,7.316,14.007,7.173,14.082,7.172l.369-.011.037.367c4.6,8.758,1,41.285,4.2,61.489,3.249,20.527,31,38,7.238,41.1a.515.515,0,0,1,.016.533C548.779,422.883,482.9,437.128,477.973,437.128ZM549.539,420.1Z" transform="translate(-224.434 -205.24)" fill="#e6e6e6"/>
    <path id="Path_22" data-name="Path 22" d="M553.192,377.348l-12.831-7.218c-22.375-15.509-27.887-27.825-28.576-35.43-.735-8.114,3.588-12.552,3.772-12.736l.1-.073,11.567-5.91a11.642,11.642,0,0,1,16.237,6.389l10.7,29.425,11.862-8.749,5.059-1.994,4.082-5.458,11.211-6.539,8.329,7.5L584.229,357.5l-5.819,1.482-1.234,3.179-.11.07Z" transform="translate(-224.434 -205.24)" fill="#e6e6e6"/>
    <path id="Path_23" data-name="Path 23" d="M530.226,283.2a21.845,21.845,0,1,1,1.11-18.61c.1.25.19.5.28.76a21.815,21.815,0,0,1-1.39,17.85Z" transform="translate(-224.434 -205.24)" fill="#9e616a"/>
    <path id="Path_24" data-name="Path 24" d="M533.366,265.354c-.94-2.63-.53-1.26-1.48-3.88a6.539,6.539,0,0,1-.27,3.88h-26.01v-15.12c7.62-3.02,15.07-5.59,19.57,0a15.121,15.121,0,0,1,15.12,15.119Z" transform="translate(-224.434 -205.24)" fill="#2f2e41"/>
    <path id="Path_25" data-name="Path 25" d="M524.146,307.384c-.02-.28-.05-.57-.09-.85a29.447,29.447,0,0,0-1.69-6c-.75-2.11-1.51-4.23-2.27-6.34a18.152,18.152,0,0,1-.85,11.52c-4.39-3.42-1.62-11.24-7.36-11.24-13.8,0-28-11.19-28-25s5.92-24.12,19.72-24.12,25.01,6.32,25.28,20.12C511.886,269.474,527.356,305.984,524.146,307.384Z" transform="translate(-224.434 -205.24)" fill="#2f2e41"/>
    <circle id="Ellipse_4" data-name="Ellipse 4" cx="16" cy="16" r="16" transform="translate(245.176 30.119)" fill="#2f2e41"/>
    <path id="Path_26" data-name="Path 26" d="M490.975,251.981c-2.74,3.19-7.03,4.43-10.9,6.09a45.855,45.855,0,0,0-26.64,33.5c-1.07,5.97-.93,12.15-2.62,17.97s-5.84,11.53-11.81,12.54c-4.04.69-8.09-.87-11.89-2.41q-3.135-1.26-6.27-2.53,3.27-8.205,6.53-16.41a83.16,83.16,0,0,1-12.11,14.17q-11.235-4.53-22.49-9.06c18.46.07,15.31-17.85,19.44-35.83,2.27-9.88,21.6-16.57,25.39-25.97a28.756,28.756,0,0,1,52.16-2.62C493.555,242.931,493.665,248.831,490.975,251.981Z" transform="translate(-224.434 -205.24)" fill="#2f2e41"/>
    <path id="Path_27" data-name="Path 27" d="M974.375,694.453l-748.75.307a1.191,1.191,0,0,1,0-2.381l748.75-.307a1.191,1.191,0,0,1,0,2.381Z" transform="translate(-224.434 -205.24)" fill="#cacaca"/>
  </g>
</svg>
